<svg width="100%" height="100%" viewBox="0 0 800 800" version="1.1" xmlns="http://www.w3.org/2000/svg" xml:space="preserve" 
     style="fill:none;fill-rule:nonzero;clip-rule:evenodd;stroke-linecap:round;stroke-linejoin:round;stroke:#000;stroke-width:33.3px;">
	<circle cx="400" cy="400" r="375"/>
	<path d="M676.124,484.62c-12.517,-1.188 -27.063,0.372 -38.989,-4.228c-13.844,-5.34 -7.579,-17.167 -15.689,-26.797c-6.301,-7.478 -18.467,-9.883 -26.983,-14.227c-11.601,-5.915 -22.832,-12.726 -35.506,-16.183c-13.104,-3.572 -28.787,0.555 -40.253,6.962c-3.596,2.008 -11.835,8.86 -16.103,5.471c-4.469,-3.545 3.345,-18.295 -6.978,-14.651c-9.445,3.333 -13.889,17.776 -21.668,16.666c-9.273,-1.328 -16.743,-4.14 -26.169,-3.375c-8.226,0.667 -16.438,2.742 -22.199,-4.973c-6.092,-8.162 -0.49,-18.403 -4.317,-26.767c-6.572,-14.368 -23.518,-0.52 -33.816,-6.951c7.381,-5.567 14.261,-15.347 14.688,-24.837c0.4,-8.827 -5.609,-15.475 -14.099,-9.793c-4.658,3.116 -4.529,8.83 -7.978,12.683c-5.965,6.663 -36.723,8.347 -38.99,-3.552c-2.123,-11.155 -6.334,-31.813 -1.021,-42.435c4.1,-8.2 9.312,-17.87 18.568,-21.033c9.437,-3.228 22.362,0.443 32.879,-2.245c9.033,-2.308 19.12,-5.312 27.993,-0.962c9.052,4.439 10.602,14.449 14.459,23.127c2.222,5 10.556,11.667 8.331,-1.682c-1.739,-10.428 -11.511,-23.178 -6.392,-33.363c4.588,-9.115 15.626,-12.098 21.51,-19.928c5.77,-7.675 1.608,-17.58 5.969,-25.677c4.345,-8.07 14.591,-10.615 18.588,-19.045c1.948,-4.11 10.821,-28.32 19.688,-20.655c3.76,3.25 1.525,7.388 7.416,3.285c2.405,-1.675 11.329,-7.95 6.002,-10.9c-4.897,-2.71 -13.335,1.628 -16.025,-5.187c-4.637,-11.745 17.075,-17.761 19.919,-26.293c1.666,-5 1.665,-6.667 -11.113,-11.667c-8.772,-3.433 -18.058,-22.276 -26.896,-21.701c-4.932,0.321 -3.925,5.738 -7.06,6.635c-7.431,2.125 -11.508,-9.185 -16.627,-13.087c-3.7,-2.818 -17.543,-8.82 -22.093,-5.352c-10.949,8.345 18.415,50.37 -2.295,58.304c-5.086,1.948 -15.803,-19.665 -22.916,-22.569c-11.461,-4.68 -30.927,-3.061 -30.482,-21.121c0.432,-17.567 22.507,-12.447 27.737,-24.427c4.637,-10.62 -11.681,-26.975 -21.26,-24.507c-0.522,2.655 1.275,8.914 -0.39,10.912c-5.225,6.248 -37.812,0.143 -44.964,-2.093c-12.331,-3.857 -25.404,-6.555 -36.738,-12.989c-9.827,-5.578 -15.166,-16.038 -27.702,-11.338c-8.889,3.333 -14.303,7.913 -22.08,11.248c-7.523,3.225 -15.952,3.602 -23.426,7.165c-7.572,3.612 -3.082,17.122 -9.076,23.655c-7.292,7.945 -19.529,7.512 -29.404,8.457c-2.465,0.237 -18.505,0.608 -18.941,3.233c-0.629,4.109 40.565,-0.373 43.435,-1.195c6.604,-1.89 11.441,-6.738 17.8,-9.181c7.606,-2.922 16.775,-4.24 20.653,4.086c4.534,9.777 0.817,19.337 -2.64,28.725c-3.902,10.599 -2.508,13.162 0.322,23.68c1.772,6.585 0.482,10.597 -2.289,16.77c-6.889,15.357 -25.795,42.597 -18.801,60.579c5.363,13.791 17.341,25.498 26.719,36.583c6.375,7.537 5.353,14.932 9.87,23.627c4.271,8.218 10.616,16.086 15.782,23.808c7.414,11.082 8.986,25.502 17.888,35.643c7.816,8.907 31.494,24.68 43.769,25.077c3.715,0.118 7.045,-3.39 10.634,-2.982c11.159,1.284 17.911,12.02 27.597,16.399c8.854,4.001 20.99,0.638 28.449,7.651c9.338,8.777 10.183,22.07 24.349,25.925c7.061,1.919 16.133,-1.321 22.705,1.934c19.037,9.435 6.167,31.571 0.005,43.978c-6.395,12.872 -13.178,27.903 -10.442,42.66c2.362,12.743 12.151,21.023 18.883,31.402c5.837,8.996 7.497,20.846 17.273,26.783c7.657,4.648 22.677,4.965 27.084,13.637c4.905,9.655 -6.079,24.466 -8.447,33.765c-3.004,11.793 -6.659,23.486 -10.328,35.093c-3.662,11.588 -9.799,19.642 -14.851,30.207c-4.174,8.726 -15.931,42.848 1.852,41.265c25.27,-2.259 34.639,-35.464 56.233,-43.564c4.443,-1.666 41.67,-29.443 48.337,-35c6.667,-5.553 23.335,-12.22 25.557,-18.886c2.222,-6.667 10.556,-11.667 13.335,-23.335c3.195,-13.42 24.375,-17.054 33.543,-26.12c12.542,-12.409 18.791,-30.63 25.347,-46.652c5.584,-13.645 17.63,-24.04 21.055,-38.823c4.314,-18.629 -10.223,-23.082 -27.787,-24.752Z"/>
	<path d="M475.107,357.862c-2.851,-0.767 -6.121,-0.685 -9.055,-1.63c-4.43,-1.427 -8.275,-4.344 -12.624,-6.007c-4.585,-1.755 -9.292,-3.057 -14.203,-3.413c-2.673,-0.195 -5.38,-0.082 -8.022,0.381c-2.462,0.432 -5.029,1.162 -7.312,2.192c-0.964,0.435 -2.716,1.345 -2.099,2.735c1.092,2.453 8.136,0.86 10.126,0.862c7.346,0.006 15.971,-0.182 22.043,4.635c1.579,1.253 3.021,2.685 4.272,4.266c1.022,1.285 1.931,2.752 3.462,3.492c1.504,0.727 3.094,-0.102 4.497,-0.697c1.991,-0.843 4.006,-1.635 6.069,-2.283c1.692,-0.53 3.824,-0.73 5.024,-2.187c1,-1.213 -0.69,-1.945 -2.178,-2.346Z"/>
	<path d="M508.958,364.16c-3.881,-0.993 -8.333,3.47 -13.891,1.25c-5.036,-2.015 -6.198,-4.498 -9.411,-5.103c-2.007,-0.379 -5.432,0.696 -2.814,3.02c4.532,4.02 7.784,7.646 13.335,10.14c3.452,1.55 12.091,0.355 15.418,-1.53c5.697,-3.224 3.335,-6.25 -2.637,-7.777Z"/>
	<path d="M535.178,178.113c-1.513,-0.948 -6.845,-12.325 -11.219,-3.26c-5.695,11.805 15.108,14.592 17.243,12.052c2.135,-2.54 -5.435,-8.423 -6.024,-8.792Z"/>
	<path d="M440.719,87.455c-3.322,-1.355 -33.103,-13.415 -34.09,-4.042c-0.645,6.115 11.449,7.142 15.175,8.115c5.85,1.53 15.328,6.099 16.926,12.614c1.102,4.503 -5.104,10.156 3.555,10.156c3.889,0 12.223,2.222 12.223,2.222c0,-0 3.885,2.22 7.217,1.667c9.391,-1.555 -6.127,-16.36 -8.405,-18.867c-4.267,-4.692 -6.467,-9.362 -12.601,-11.865Z"/>
	<path d="M354.71,77.268c-2.797,-1.033 -9.973,-2.016 -10.591,-1.675c-6.334,3.515 -6.466,5.274 0.39,8.619c6.304,3.076 12.614,5.598 19.463,7.221c3.802,0.902 11.464,0.924 7.841,-5.058c-3.06,-5.047 -11.936,-7.198 -17.103,-9.107Z"/>
	<path d="M420.844,55.128c-3.241,-2.485 -8.158,0.194 -11.258,1.61c-7.154,3.265 -14.531,1.205 -21.773,3.455c-1.879,0.584 -4.856,2.059 -5.004,4.365c-0.197,3.025 4.13,3.83 6.234,4.644c3.258,1.26 5.92,4.011 9.672,3.25c3.007,-0.61 5.372,-2.915 8.428,-3.509c3.52,-0.683 6.963,-1.078 9.657,-3.673c1.988,-1.915 7.392,-7.558 4.044,-10.142Z"/>
	<path d="M521.737,99.853c-0.462,-3.238 0.074,-6.503 -0.482,-9.721c-3.048,-17.674 -24.948,-27.014 -39.646,-32.984c-5.934,-2.41 -12.535,-4.128 -18.952,-4.505c-8.412,-0.491 -19.53,-1.415 -26.94,3.472c-2.611,1.722 -4.084,4.182 -3.614,7.66c0.818,6.032 12.104,4.898 16.28,5.918c11.929,2.914 21.765,8.454 31.132,16.442c14.038,11.973 26.563,22.335 43.891,29.272c2.777,1.111 8.319,2.321 7.102,-2.335c-1.719,-6.56 -7.659,-5.44 -8.771,-13.219Z"/>
</svg>