<svg width="100%" height="100%" viewBox="0 0 800 800" version="1.1" xmlns="http://www.w3.org/2000/svg" xml:space="preserve" style="fill-rule:evenodd;clip-rule:evenodd;stroke-linecap:round;stroke-linejoin:round;">
	<path d="M438.024,364.821l-341.52,341.524m378.134,-609.764c43.787,29.054 85.873,63.308 125.202,102.637c39.667,39.668 74.171,82.142 103.387,126.337m-399.835,-72.317l-103.35,-34.45c-11.902,-3.968 -25.012,-1.443 -34.59,6.661l-102.713,86.912c-21.028,17.794 -15.054,51.655 10.793,61.178l97.323,35.857m219.755,219.747l35.856,97.323c9.523,25.848 43.384,31.823 61.175,10.796l86.912,-102.716c8.103,-9.577 10.63,-22.688 6.662,-34.591l-34.451,-103.349m119.489,-445.601l-176.383,29.398c-19.05,3.174 -36.517,12.536 -49.707,26.637l-237.739,254.136c-61.623,65.871 -59.909,168.745 3.875,232.531c63.784,63.782 166.656,65.497 232.53,3.872l254.131,-237.737c14.103,-13.193 23.465,-30.661 26.639,-49.708l29.396,-176.387c8.11,-48.663 -34.077,-90.852 -82.742,-82.742Z" style="fill:none;fill-rule:nonzero;stroke:#000;stroke-width:50px;"/>
</svg>