<svg width="100%" height="100%" viewBox="0 0 800 800" version="1.1" xmlns="http://www.w3.org/2000/svg" xml:space="preserve" 
     style="fill-rule:nonzero;;clip-rule:evenodd;stroke-linecap:round;stroke-linejoin:round;stroke:#000;">
	<path d="M702.324,175.005l-527.315,-77.333l-77.333,527.314l527.315,77.334l77.333,-527.315Z" style="fill:none;stroke-width:50px;"/>
	<path d="M251.316,97.54c0,40.138 -32.537,72.676 -72.674,72.676c-40.14,-0 -72.677,-32.538 -72.677,-72.676c-0,-40.138 32.537,-72.676 72.677,-72.676c40.137,0 72.674,32.538 72.674,72.676Z"/>
	<path d="M694.114,702.189c0,40.138 -32.537,72.675 -72.674,72.675c-40.14,0 -72.677,-32.537 -72.677,-72.675c-0,-40.138 32.537,-72.676 72.677,-72.676c40.137,-0 72.674,32.538 72.674,72.676Z"/>
	<path d="M170.351,623.37c0,40.138 -32.537,72.676 -72.674,72.676c-40.14,-0 -72.677,-32.538 -72.677,-72.676c0,-40.138 32.537,-72.676 72.677,-72.676c40.137,0 72.674,32.538 72.674,72.676Z"/>
	<path d="M775,178.176c0,40.138 -32.537,72.675 -72.674,72.675c-40.14,0 -72.677,-32.537 -72.677,-72.675c-0,-40.138 32.537,-72.676 72.677,-72.676c40.137,-0 72.674,32.538 72.674,72.676Z"/>
	<path d="M472.676,399.996c-0,40.138 -32.538,72.676 -72.674,72.676c-40.14,-0 -72.678,-32.538 -72.678,-72.676c0,-40.138 32.538,-72.676 72.678,-72.676c40.136,0 72.674,32.538 72.674,72.676Z"/>
</svg>