<svg width="100%" height="100%" viewBox="0 0 800 800" version="1.1" xmlns="http://www.w3.org/2000/svg" xml:space="preserve" 
     style="fill-rule:nonzero;clip-rule:evenodd;stroke-linecap:round;stroke-linejoin:round;stroke:#000;">
	<path d="M247.987,219.388c-0,41.422 -33.578,75 -74.998,75c-41.424,-0 -75.002,-33.578 -75.002,-75c-0,-41.422 33.578,-75 75.002,-75c41.42,-0 74.998,33.578 74.998,75Z"/>
	<path d="M559.458,322.915l-386.37,-103.527l-103.527,386.37l386.37,103.528l103.527,-386.371Z" style="fill:none;stroke:#000;stroke-width:50px;"/>
	<path d="M634.496,174.95l-75.038,100.05l-75.037,-100.05l150.075,0Z"/>
	<path d="M559.458,50l0,144.96" style="fill:none;stroke-width:50px;"/>
	<path d="M605.489,784.323l-100.05,-75.037l100.05,-75.038l0,150.075Z"/>
	<path d="M730.439,709.286l-144.96,-0" style="fill:none;stroke-width:50px;"/>
</svg>