<svg width="100%" height="100%" viewBox="0 0 800 800" version="1.1" xmlns="http://www.w3.org/2000/svg" xml:space="preserve" 
     style="fill-rule:nonzero;clip-rule:evenodd;stroke-linecap:round;stroke-linejoin:round;stroke:#000;">
	<path d="M183.333,750c-36.819,0 -66.666,-34.821 -66.666,-77.778l-0,-142.897c-0,-19.024 -0,-28.537 -1.842,-37.489c-1.633,-7.933 -4.327,-15.52 -7.982,-22.482c-4.123,-7.847 -9.889,-14.575 -21.418,-28.027l-35.425,-41.327l35.425,-41.327c11.53,-13.452 17.295,-20.18 21.418,-28.027c3.655,-6.962 6.349,-14.547 7.982,-22.484c1.842,-8.951 1.842,-18.463 1.842,-37.486l-0,-142.898c-0,-42.956 29.847,-77.778 66.666,-77.778" style="fill:none;stroke-width:50px;"/>
	<path d="M616.667,750c36.82,0 66.666,-34.821 66.666,-77.778l0,-142.897c0,-19.024 0,-28.537 1.844,-37.489c1.633,-7.933 4.326,-15.52 7.98,-22.482c4.123,-7.847 9.89,-14.575 21.42,-28.027l35.423,-41.327l-35.423,-41.327c-11.53,-13.452 -17.297,-20.18 -21.42,-28.027c-3.654,-6.962 -6.347,-14.547 -7.98,-22.484c-1.844,-8.951 -1.844,-18.463 -1.844,-37.486l0,-142.898c0,-42.956 -29.846,-77.778 -66.666,-77.778" style="fill:none;stroke-width:50px;"/>
	<path d="M262.548,275.05l75.038,-100.05l75.037,100.05l-150.075,0Z"/>
	<path d="M337.586,462.414l-0,-207.374" style="fill:none;stroke-width:50px;"/>
	<path d="M337.586,462.414l207.374,0" style="fill:none;stroke-width:50px;"/>
	<path d="M337.586,462.414c-0,0 -59.061,59.061 -105.989,105.989" style="fill:none;stroke-width:50px;"/>
	<path d="M524.95,387.377l100.05,75.037l-100.05,75.038l-0,-150.075Z"/>
	<path d="M298.806,607.313l-123.806,17.687l17.687,-123.806l106.119,106.119Z"/>
</svg>