<svg width="100%" height="100%" viewBox="0 0 800 800" version="1.1" xmlns="http://www.w3.org/2000/svg" xml:space="preserve" style="fill-rule:evenodd;clip-rule:evenodd;stroke-linejoin:round;">
	<path d="M528.825,490.542c122.153,-0 221.175,-98.62 221.175,-220.272c0,-121.652 -99.022,-220.27 -221.175,-220.27c-122.15,-0 -221.173,98.618 -221.173,220.27c0,56.348 25.718,97.33 25.718,97.33l-267.466,266.372c-12.002,11.952 -28.804,43.029 0,71.715l30.861,30.737c12.002,10.244 42.176,24.587 66.866,-0l36.005,-35.858c36.005,35.858 77.153,15.369 92.584,-5.124c25.718,-35.857 -5.143,-71.715 -5.143,-71.715l10.287,-10.244c49.376,49.175 92.584,20.489 108.016,-0c25.718,-35.858 -0,-71.715 -0,-71.715c-10.287,-20.493 -30.86,-20.493 -5.145,-46.102l30.863,-30.737c24.689,20.489 75.439,25.613 97.727,25.613Z" style="fill:none;fill-rule:nonzero;stroke:#000;stroke-width:50px;"/>
	<path d="M605.986,270.273c-0,42.437 -34.542,76.838 -77.151,76.838c-42.612,0 -77.154,-34.401 -77.154,-76.838c0,-42.436 34.542,-76.838 77.154,-76.838c42.609,-0 77.151,34.402 77.151,76.838Z" style="fill:none;fill-rule:nonzero;stroke:#000;stroke-width:50px;stroke-linejoin:miter;"/>
</svg>