<svg width="100%"
     height="100%"
     viewBox="0 0 100 100"
     xmlns="http://www.w3.org/2000/svg"
     style="fill:none;stroke-linecap:round;stroke-linejoin:round;stroke-width:4px;stroke:black;">
	<g id="page2">
		<path d="M42.048,10l-28.048,0l-12,12l0,76l60,0l-0,-8"/>
		<path d="M28.008,43.123l9.992,-0"/>
		<path d="M28.008,61.046l7.199,-0"/>
		<path d="M28,50.123l10,-0"/>
		<path d="M11,42.67l8,8"/>
		<path d="M19,42.67l-8,8"/>
		<path d="M11,78.467l8,8"/>
		<path d="M19,78.467l-8,8"/>
		<path d="M10,29.057l3.811,3.661l6.189,-8"/>
		<path d="M10,64.885l3.811,3.661l6.189,-8"/>
		<path d="M28.008,25.268l9.992,-0"/>
		<path d="M28,32.204l10,-0"/>
		<path d="M28.008,25.204l9.992,-0"/>
		<path d="M28,32.204l10,-0"/>
		<path d="M38,68.046l-9.992,-0"/>
		<path d="M28.008,78.967l9.992,-0"/>
		<path d="M28,85.967l10,-0"/>
	</g>
	<g id="page1">
		<path d="M64.007,35.123l25,-0"/>
		<path d="M64,42.123l16.112,-0"/>
		<path d="M64.007,17.204l25,-0"/>
		<path d="M64,24.204l20,-0"/>
		<path d="M98,2l-47.857,0l-12.143,12l0,76l60,0l0,-88Z"/>
		<path d="M81.005,53.046l8.002,-0"/>
		<path d="M74.001,60.046l10.336,-0"/>
		<path d="M64.007,70.967l25,-0"/>
		<path d="M64,77.967l20,-0"/>
		<path d="M46,21.057l3.811,3.661l6.189,-8"/>
		<path d="M46,39.009l3.811,3.661l6.189,-8"/>
		<path d="M46,56.885l3.811,3.661l6.189,-8"/>
	</g>
	<path id="pencil" d="M53.512,80.523l-7.512,1.477l1.601,-7.385l32.511,-32.492l5.911,5.907l-32.511,32.493Z"/>
</svg>