<svg width="100%"
     height="100%"
     viewBox="0 0 256 256"
     version="1.1"
     xmlns="http://www.w3.org/2000/svg"
     xml:space="preserve"
     style="fill-rule:nonzero;clip-rule:evenodd;stroke:none">
	<g id="grid">
		<rect x="128"
		      y="0"
		      width="128"
		      height="128"
		      style="fill:#3857bc;"/>
		<rect x="0"
		      y="0"
		      width="128"
		      height="128"
		      style="fill:#3a6fd8;"/>
		<rect x="128"
		      y="128"
		      width="128"
		      height="128"
		      style="fill:#3b88f5;"/>
		<rect x="64"
		      y="128"
		      width="64"
		      height="64"
		      style="fill:#28abfa;"/>
		<rect x="0"
		      y="128"
		      width="64"
		      height="64"
		      style="fill:#14cfff;"/>
		<rect x="64"
		      y="192"
		      width="64"
		      height="64"
		      style="fill:#4fdbff;"/>
		<rect x="32"
		      y="192"
		      width="32"
		      height="32"
		      style="fill:#8ae7ff;"/>
		<rect x="0"
		      y="192"
		      width="32"
		      height="32"
		      style="fill:#c4f3ff;"/>
		<rect x="32"
		      y="224"
		      width="32"
		      height="32"
		      style="fill:#e0f8ff;"/>
		<rect x="0"
		      y="224"
		      width="32"
		      height="32"
		      style="fill:#fff;"/>
	</g>
	<g id="pencil">
		<path d="M210.597,89.527
		         l-29.656,-29.631
				 l37.728,-37.696
				 l15.441,15.425
				 c7.853,7.846 7.853,20.567 -0,28.413
				 l-23.513,23.489
				 Z"
		      style="fill:#cc1b1b;"/>
		<path d="M189.619,21.591
		         l-23.514,23.489
				 l14.831,14.816
				 l26.335,-26.309
				 c4.618,-4.614 14.138,-6.73 19.022,-3.771
				 l-7.624,-7.616
				 c-7.856,-7.849 -21.194,-8.458 -29.05,-0.609
				 Z"
		      style="fill:#b71616;"/>
		<path d="M67.079,144.009
		         l14.831,14.815
				 l-19.972,35.978
				 l-9.241,-9.172
				 l9.404,-32.889
				 c0.987,-3.452 2.437,-6.194 4.978,-8.732
				 Z"
		      style="fill:#efbf86;"/>
		<path d="M81.91,158.824
		         l29.661,29.632
				 c-2.487,2.484 -5.239,3.993 -8.61,4.994
				 l-32.619,9.693
				 l-8.404,-8.341
				 l19.972,-35.978
				 Z"
		      style="fill:#f4cf9d;"/>
		<path d="M61.938,194.802
		         l-7.202,12.973
				 c-3.965,1.181 -7.665,-2.482 -6.527,-6.454
				 l4.488,-15.691
				 l9.241,9.172
				 Z"
		      style="000000"/>
		<path d="M54.737,207.774
		         l7.201,-12.972
				 l8.404,8.341
				 l-15.605,4.631
				 Z"
		      style="fill:#6b6968;"/>
		<path d="M195.769,74.714
		         l-14.833,-14.818
				 l-14.08,14.066
				 l14.834,14.815
				 l14.079,-14.063
				 Z"
		      style="fill:#d4d6d6;"/>
		<path d="M81.91,158.824
		         l-14.831,-14.815
		         l84.946,-84.863
				 l14.831,14.816
				 l-84.946,84.862
				 Z"
		      style="fill:#e57225;"/>
		<path d="M96.74,173.64
		         l-14.83,-14.816
				 l84.946,-84.862
				 l14.831,14.815
				 l-84.947,84.863
				 Z"
		      style="fill:#f98821;"/>
		<path d="M111.571,188.456
		         l-14.831,-14.816
				 l84.947,-84.863
				 l14.831,14.816
				 l-84.947,84.863
				 Z"
		      style="fill:#f9ae41;"/>
		<path d="M210.597,89.527
		         l-14.079,14.066
				 l-14.83,-14.814
				 l14.081,-14.065
				 l14.828,14.813
				 Z"
		      style="fill:#e6e8e8;"/>
		<path d="M152.025,59.146
		         l14.831,14.816
				 l14.08,-14.066
				 l-14.831,-14.816
				 l-14.08,14.066
				 Z"
		      style="fill:#c6c6c6;"/>
	</g>
</svg>