<svg width="100%"
     height="100%"
     viewBox="0 0 100 100"
     xmlns="http://www.w3.org/2000/svg"
     style="fill:none;stroke-linecap:round;stroke-linejoin:round;stroke-width:4px;stroke:white;">
    <g>
        <path d="M18.771,81.192L31.36,62.901L39.933,73.345L52.313,55.289"/>
        <path d="M10.101,46.509L10.101,89.907L69.663,89.907L69.663,73.099"/>
        <path d="M69.663,38.417L69.663,2L2,2L2,98L77.759,98L77.759,71.097"/>
        <path d="M77.759,40.419L77.759,10.093L69.663,10.093"/>
        <path d="M81.929,68.017L98,84.08"/>
        <path d="M30.344,29.746L58.103,29.746"/>
        <path d="M30.337,36.682L51.15,36.682"/>
        <path d="M30.344,11.827L58.103,11.827"/>
        <path d="M30.337,18.763L51.15,18.763"/>
        <rect x="10.096" y="10.093" width="10.4" height="10.4"/>
        <rect x="10.096" y="28.012" width="10.4" height="10.4"/>
        <circle cx="69.663" cy="55.758" r="17.34"/>
    </g>
</svg>