<svg version="1.1" id="Layer_1" xmlns="http://www.w3.org/2000/svg" x="0px" y="0px" viewBox="0 0 512 512" style="enable-background:new 0 0 512 512;" xml:space="preserve">
	<style type="text/css">.st0{fill:black;}</style>
	<path class="st0" d="M25.6,76.8C11.46,76.8,0,88.26,0,102.4S11.46,128,25.6,128h460.8c14.14,0,25.6-11.46,25.6-25.6
		s-11.46-25.6-25.6-25.6H25.6z M204.8,384c-14.14,0-25.6,11.46-25.6,25.6s11.46,25.6,25.6,25.6h281.6c14.14,0,25.6-11.46,25.6-25.6
		S500.54,384,486.4,384H204.8z M179.2,256c0-14.14,11.46-25.6,25.6-25.6h281.6c14.14,0,25.6,11.46,25.6,25.6s-11.46,25.6-25.6,25.6
		H204.8C190.66,281.6,179.2,270.14,179.2,256z M69.3,289.1c-10-10-26.21-10-36.2,0c-10,10-10,26.21,0,36.2l33.1,33.1l-33.1,33.1
		c-10,10-10,26.21,0,36.2c10,10,26.21,10,36.2,0l51.2-51.2c10-10,10-26.21,0-36.2L69.3,289.1z"/>
</svg>
