<svg version="1.1" id="Layer_1" xmlns="http://www.w3.org/2000/svg" x="0px" y="0px" viewBox="0 0 512 512" style="enable-background:new 0 0 512 512;" xml:space="preserve">
	<style type="text/css">.st0{fill:white;}</style>
	<path class="st0" d="M0,85.33c0-13.47,10.92-24.38,24.38-24.38h438.86c13.47,0,24.38,10.92,24.38,24.38s-10.92,24.38-24.38,24.38
		H24.38C10.92,109.71,0,98.8,0,85.33z M24.38,353.52C10.92,353.52,0,364.44,0,377.91c0,13.47,10.92,24.38,24.38,24.38h146.29
		c13.47,0,24.38-10.92,24.38-24.38c0-13.47-10.92-24.38-24.38-24.38H24.38z M327.05,353.52h87.43c26.93,0,48.76-21.83,48.76-48.76
		c0-26.93-21.83-48.76-48.76-48.76H24.38C10.92,256,0,245.09,0,231.62s10.92-24.38,24.38-24.38h390.1
		c53.86,0,97.52,43.66,97.52,97.52s-43.66,97.52-97.52,97.52h-87.43l7.14,7.14c9.52,9.52,9.52,24.96,0,34.48
		c-9.52,9.52-24.96,9.52-34.48,0l-48.76-48.76c-9.52-9.52-9.52-24.96,0-34.48l48.76-48.76c9.52-9.52,24.96-9.52,34.48,0
		c9.52,9.52,9.52,24.96,0,34.48L327.05,353.52z"/>
</svg>
